#!OML:ASF H:\Terrain\Patient Classification 1\Terrain2\Thursday\justin.ASF
:FULLY-SPECIFIED
:DEGREES
1786
root 29.2588 17.8349 21.2721 1566.97 -77.9742 226.044
lowerback 16.7014 1.95006 10.2976
upperback 5.85899 3.88202 3.95079
thorax -2.59918 1.76442 -2.29496
lowerneck -14.6623 -2.1029 -9.60572
upperneck 36.1328 -3.27497 4.68317
head 15.3626 -2.49817 3.00716
rclavicle -4.37326e-015 -4.13472e-014
rhumerus -26.0489 -5.87519 -82.3665
rradius 31.7595
rwrist -15.069
rhand -23.054 9.00238
rfingers 7.12502
rthumb 3.39098 -20.9504
lclavicle -4.37326e-015 -4.13472e-014
lhumerus -33.2043 16.9519 79.1927
lradius 23.6553
lwrist -4.16779
lhand -18.3972 23.6378
lfingers 7.12502
lthumb 7.88695 53.4706
rfemur 17.5283 -2.82003 34.464
rtibia 11.5374
rfoot -15.6826 -3.82646
rtoes -10.7684
lfemur -82.9779 12.1267 -11.677
ltibia 96.3948
lfoot 2.13375 -15.6628
ltoes -1.80146
1787
root 29.1795 17.8143 21.2676 1567.25 -78.1276 225.723
lowerback 16.8048 2.09255 10.1167
upperback 5.89452 4.05019 3.95117
thorax -2.61278 1.84608 -2.2276
lowerneck -14.7048 -2.26492 -9.73127
upperneck 36.0449 -3.48673 4.76285
head 15.3577 -2.58549 3.02589
rclavicle -5.40694e-014 -4.21423e-014
rhumerus -26.0886 -5.83659 -82.36
rradius 31.8695
rwrist -15.6208
rhand -23.2268 9.08373
rfingers 7.12502
rthumb 3.22403 -20.8716
lclavicle -5.40694e-014 -4.21423e-014
lhumerus -33.0028 16.5403 79.6117
lradius 23.7724
lwrist -4.09238
lhand -18.0744 23.4684
lfingers 7.12502
lthumb 8.19854 53.2893
rfemur 17.5026 -1.32437 34.872
rtibia 12.4506
rfoot -15.9511 -5.33262
rtoes -9.98262
lfemur -82.5998 11.9869 -11.7228
ltibia 96.1997
lfoot 3.43872 -15.541
ltoes -1.70482
1788
root 29.1018 17.7844 21.2674 1566.92 -78.2074 226.135
lowerback 16.7488 2.09394 10.0213
upperback 5.90264 4.03069 4.06423
thorax -2.59307 1.83447 -2.04963
lowerneck -14.6863 -2.2842 -10.0429
upperneck 35.9654 -3.4377 4.84471
head 15.3209 -2.59186 3.12344
rclavicle -2.48481e-014 -9.54166e-015
rhumerus -26.0027 -5.39439 -82.3556
rradius 31.7813
rwrist -15.7243
rhand -23.4248 8.91147
rfingers 7.12502
rthumb 3.03288 -21.0467
lclavicle -2.48481e-014 -9.54166e-015
lhumerus -32.9732 16.8933 79.8492
lradius 23.8724
lwrist -4.36469
lhand -17.8051 23.1697
lfingers 7.12502
lthumb 8.45846 52.9803
rfemur 17.2012 -1.26345 34.8306
rtibia 13.5152
rfoot -16.5864 -5.2905
rtoes -8.5436
lfemur -82.4675 11.7859 -11.6518
ltibia 96.135
lfoot 4.93146 -15.2836
ltoes 0.791694
1789
root 29.0253 17.7532 21.2664 1566.41 -78.2977 226.787
lowerback 16.7067 2.06041 9.9922
upperback 5.87863 3.98179 4.05232
thorax -2.60346 1.81066 -2.03698
lowerneck -14.7423 -2.30469 -10.0206
upperneck 35.8923 -3.43616 4.79398
head 15.2973 -2.58901 3.09659
rclavicle 1.77912e-014 8.82604e-014
rhumerus -25.927 -5.48145 -82.4971
rradius 31.7154
rwrist -15.2128
rhand -22.8926 8.72532
rfingers 7.12502
rthumb 3.5468 -21.2249
lclavicle 1.77912e-014 8.82604e-014
lhumerus -32.9301 16.4597 80.0956
lradius 24.2273
lwrist -3.76892
lhand -17.8538 23.6532
lfingers 7.12502
lthumb 8.41145 53.4657
rfemur 16.9051 -0.752944 35.0748
rtibia 14.4648
rfoot -17.0168 -5.86904
rtoes -6.93566
lfemur -82.373 11.5542 -11.5243
ltibia 96.1613
lfoot 5.73303 -15.5902
ltoes 1.70138
1790
root 28.9457 17.7289 21.2634 1565.85 -78.3852 227.331
lowerback 16.8587 2.04696 9.93984
upperback 5.87665 3.97499 4.04229
thorax -2.69055 1.80247 -2.02501
lowerneck -14.7631 -2.31784 -9.98929
upperneck 35.8126 -3.45512 4.80801
head 15.2649 -2.58527 3.09246
rclavicle -3.17062e-014 2.3059e-014
rhumerus -25.9672 -5.39212 -82.6706
rradius 31.812
rwrist -15.0823
rhand -22.4806 8.66761
rfingers 7.12502
rthumb 3.94464 -21.2756
lclavicle -3.17062e-014 2.3059e-014
lhumerus -32.8678 15.7545 80.417
lradius 24.5295
lwrist -3.05557
lhand -18.0608 24.0393
lfingers 7.12502
lthumb 8.21165 53.8597
rfemur 17.1109 -0.380267 35.3182
rtibia 14.7722
rfoot -17.0718 -6.50623
rtoes -5.71637
lfemur -82.0592 11.3836 -11.3979
ltibia 96.3462
lfoot 5.85988 -16.1788
ltoes 4.358
1791
root 28.8636 17.7112 21.2595 1565.73 -78.5795 227.449
lowerback 16.9009 2.08282 9.74122
upperback 5.89147 3.99608 4.07047
thorax -2.71371 1.81068 -1.89168
lowerneck -14.6908 -2.32108 -10.2318
upperneck 35.6954 -3.45615 5.02144
head 15.2019 -2.58444 3.22482
rclavicle 4.25399e-014 1.35174e-014
rhumerus -26.0051 -5.11274 -82.7439
rradius 31.9338
rwrist -15.4248
rhand -22.8412 8.6029
rfingers 7.12502
rthumb 3.5965 -21.3465
lclavicle 4.25399e-014 1.35174e-014
lhumerus -32.8202 15.7581 80.6437
lradius 24.6444
lwrist -3.08201
lhand -18.02 23.3855
lfingers 7.12502
lthumb 8.25105 53.2044
rfemur 17.2924 0.00799722 35.4034
rtibia 15.1003
rfoot -17.1362 -7.01986
rtoes -4.62522
lfemur -81.7993 11.2268 -11.4627
ltibia 96.694
lfoot 5.39576 -16.7081
ltoes 9.9633
1792
root 28.7811 17.6789 21.2562 1565.62 -78.6898 227.735
lowerback 16.8138 2.14629 9.77127
upperback 5.8746 4.0772 3.95895
thorax -2.66696 1.85724 -2.03633
lowerneck -14.7117 -2.37787 -10.185
upperneck 35.5255 -3.58123 5.16924
head 15.1395 -2.59977 3.25528
rclavicle 3.45885e-014 7.95139e-016
rhumerus -25.9293 -5.55077 -82.9457
rradius 31.938
rwrist -15.1688
rhand -23.1163 8.58767
rfingers 7.12502
rthumb 3.33078 -21.3661
lclavicle 3.45885e-014 7.95139e-016
lhumerus -32.5998 15.6578 80.6628
lradius 24.7073
lwrist -3.26093
lhand -17.8642 22.8574
lfingers 7.12502
lthumb 8.40141 52.6703
rfemur 17.0501 0.958864 35.4286
rtibia 15.3013
rfoot -17.4376 -6.22083
rtoes 4.52993
lfemur -81.8844 11.1415 -11.4774
ltibia 97.2306
lfoot 4.34456 -17.1897
ltoes 13.9156
1793
root 28.7007 17.6619 21.2523 1565.09 -78.7942 228.375
lowerback 16.8778 2.13598 9.89844
upperback 5.86981 4.0902 3.75275
thorax -2.67808 1.86894 -2.32948
lowerneck -14.8472 -2.42019 -9.85643
upperneck 35.3651 -3.7078 5.18449
head 15.0978 -2.59378 3.1788
rclavicle 7.15625e-015 1.51076e-014
rhumerus -25.7784 -6.05221 -83.3611
rradius 31.8052
rwrist -14.5393
rhand -22.7751 8.81442
rfingers 7.12502
rthumb 3.66026 -21.1339
lclavicle 7.15625e-015 1.51076e-014
lhumerus -32.2441 15.2207 80.6362
lradius 24.7321
lwrist -3.23041
lhand -17.9513 23.1505
lfingers 7.12502
lthumb 8.31736 52.9668
rfemur 17.3635 0.48505 35.49
rtibia 15.398
rfoot -17.441 -7.10421
rtoes -1.74866
lfemur -81.7024 11.019 -11.4748
ltibia 97.7132
lfoot 2.80788 -17.131
ltoes 15.3817
1794
root 28.6183 17.6283 21.2528 1564.44 -79.0055 229.129
lowerback 16.9149 2.09961 9.76685
upperback 5.87445 4.02672 3.7065
thorax -2.70737 1.8372 -2.29731
lowerneck -14.9633 -2.42905 -9.79417
upperneck 35.279 -3.7119 5.19364
head 15.0826 -2.57757 3.16933
rclavicle -3.47873e-014 3.97569e-015
rhumerus -25.6412 -6.0147 -83.543
rradius 31.7191
rwrist -14.4342
rhand -22.068 9.03216
rfingers 7.12502
rthumb 4.34306 -20.9033
lclavicle -3.47873e-014 3.97569e-015
lhumerus -31.9843 15.209 80.7747
lradius 24.8031
lwrist -3.27836
lhand -18.0641 23.5582
lfingers 7.12502
lthumb 8.20848 53.3787
rfemur 17.5186 1.13037 35.7722
rtibia 15.5471
rfoot -17.4332 -8.02106
rtoes -2.0367
lfemur -81.6264 10.7942 -11.6582
ltibia 98.3192
lfoot 0.805679 -16.863
ltoes 13.0744
1795
root 28.5376 17.598 21.254 1563.52 -78.9899 230.185
lowerback 16.9983 2.11306 9.78222
upperback 5.80365 4.06866 3.79277
thorax -2.82881 1.84977 -2.22803
lowerneck -14.854 -2.42696 -9.87874
upperneck 35.2036 -3.72274 5.28924
head 15.0264 -2.57899 3.22194
rclavicle 5.41688e-014 2.78299e-014
rhumerus -25.6504 -5.78209 -83.5773
rradius 31.855
rwrist -14.8879
rhand -21.9288 8.78487
rfingers 7.12502
rthumb 4.47747 -21.1478
lclavicle 5.41688e-014 2.78299e-014
lhumerus -31.9648 15.069 81.008
lradius 25.0293
lwrist -3.18149
lhand -18.0587 23.4044
lfingers 7.12502
lthumb 8.21365 53.2248
rfemur 17.3574 0.961654 35.7898
rtibia 16.1011
rfoot -17.9048 -7.64043
rtoes -0.73302
lfemur -81.6985 10.7619 -11.6885
ltibia 99.0141
lfoot -1.14569 -17.0608
ltoes 9.44138
1796
root 28.4551 17.5744 21.2508 1561.63 -78.7686 232.001
lowerback 17.3173 2.06738 10.0791
upperback 5.77569 4.09655 3.93222
thorax -3.00986 1.8491 -2.26393
lowerneck -14.7447 -2.39672 -10.0185
upperneck 35.1798 -3.70409 5.44817
head 14.9943 -2.5697 3.31741
rclavicle -6.36111e-014 -4.85035e-014
rhumerus -25.6731 -5.57258 -83.6592
rradius 32.0062
rwrist -14.973
rhand -21.8782 8.29512
rfingers 7.12502
rthumb 4.52641 -21.6365
lclavicle -6.36111e-014 -4.85035e-014
lhumerus -31.9261 14.7684 81.2766
lradius 25.1534
lwrist -3.09002
lhand -18.4469 23.081
lfingers 7.12502
lthumb 7.83899 52.9157
rfemur 17.6486 0.205793 35.9995
rtibia 16.5012
rfoot -18.2893 -7.60834
rtoes -3.18804
lfemur -81.5765 10.8124 -11.4025
ltibia 99.7105
lfoot -2.51071 -17.6659
ltoes 9.25325
1797
root 28.3704 17.5419 21.2546 1560.22 -78.855 233.372
lowerback 17.5324 1.96522 10.093
upperback 5.80962 3.98535 4.00667
thorax -3.10295 1.78621 -2.18179
lowerneck -14.8468 -2.39235 -10.1364
upperneck 35.1385 -3.6319 5.43655
head 14.9944 -2.55079 3.34488
rclavicle -3.01159e-014 -4.85035e-014
rhumerus -25.6144 -5.16376 -83.8382
rradius 32.1097
rwrist -14.8859
rhand -21.492 8.07465
rfingers 7.12502
rthumb 4.89925 -21.8487
lclavicle -3.01159e-014 -4.85035e-014
lhumerus -31.6842 14.9568 81.4793
lradius 25.0597
lwrist -3.35693
lhand -19.4736 22.9772
lfingers 7.12502
lthumb 6.84794 52.8465
rfemur 17.638 0.682786 36.2563
rtibia 17.0079
rfoot -18.4667 -8.03646
rtoes -1.86159
lfemur -81.4968 10.6138 -11.5036
ltibia 100.339
lfoot -3.93641 -18.1384
ltoes 9.61189
1798
root 28.2896 17.5283 21.2689 1560.31 -79.3547 233.527
lowerback 17.5557 1.94725 9.82927
upperback 5.76855 3.92992 3.85602
thorax -3.17682 1.76011 -2.1897
lowerneck -15.0004 -2.51752 -10.1583
upperneck 35.0041 -3.75325 5.39751
head 14.9809 -2.59772 3.30843
rclavicle -2.72335e-014 -2.54444e-014
rhumerus -25.584 -5.13977 -84.0723
rradius 32.2641
rwrist -14.9294
rhand -21.3709 7.98724
rfingers 7.12502
rthumb 5.01622 -21.9334
lclavicle -2.72335e-014 -2.54444e-014
lhumerus -31.3498 15.1182 81.5612
lradius 24.9979
lwrist -3.60024
lhand -20.8066 23.3134
lfingers 7.12502
lthumb 5.5611 53.2205
rfemur 17.5037 1.27882 35.9889
rtibia 17.5188
rfoot -19.0136 -8.16333
rtoes 1.16498
lfemur -81.493 10.1676 -12.2217
ltibia 100.728
lfoot -5.47158 -17.9627
ltoes 9.39811
1799
root 28.2062 17.5349 21.2788 1559.49 -79.895 234.51
lowerback 17.6607 1.90804 9.69575
upperback 5.75009 3.87238 3.68462
thorax -3.257 1.73271 -2.29335
lowerneck -15.1896 -2.66632 -10.3091
upperneck 34.9335 -3.92442 5.50721
head 15.0184 -2.66474 3.35097
rclavicle 1.8487e-014 3.18055e-014
rhumerus -25.4872 -5.04977 -84.3022
rradius 32.4135
rwrist -15.4797
rhand -21.6075 7.68452
rfingers 7.12502
rthumb 4.78776 -22.2414
lclavicle 1.8487e-014 3.18055e-014
lhumerus -31.0007 15.0557 81.6864
lradius 25.0471
lwrist -3.76917
lhand -22.2364 23.6989
lfingers 7.12502
lthumb 4.1805 53.6376
rfemur 17.4011 0.148949 35.3594
rtibia 17.8951
rfoot -18.9691 -8.59303
rtoes -5.00387
lfemur -81.2983 9.60013 -12.8506
ltibia 100.961
lfoot -6.26935 -17.4752
ltoes 11.563
1800
root 28.1262 17.5257 21.2918 1559.83 -80.0284 234.253
lowerback 17.91 1.87273 9.60598
upperback 5.78617 3.83253 3.64901
thorax -3.35822 1.70705 -2.28456
lowerneck -15.3297 -2.6446 -10.45
upperneck 34.8055 -3.79805 5.4925
head 14.981 -2.62052 3.38862
rclavicle 1.11319e-014 5.08889e-014
rhumerus -25.2581 -4.15518 -84.5621
rradius 32.4986
rwrist -16.2665
rhand -21.8726 7.65745
rfingers 7.12502
rthumb 4.53174 -22.2741
lclavicle 1.11319e-014 5.08889e-014
lhumerus -30.7964 15.1466 81.8995
lradius 25.2291
lwrist -3.7239
lhand -23.6951 24.132
lfingers 7.12502
lthumb 2.77177 54.0937
rfemur 17.2927 -0.603381 34.6643
rtibia 18.2086
rfoot -19.0145 -7.45289
rtoes -5.48793
lfemur -81.1951 9.51722 -13.2086
ltibia 101.26
lfoot -6.47354 -17.0473
ltoes 15.0256
